<svg xmlns="http://www.w3.org/2000/svg" viewBox="0 0 263.21 65.52"><defs><style>.a{fill:#0e98c2;}.b{fill:#898989;}</style></defs><title>logo-ultimages-light</title><path class="a" d="M29.31,51.41H26.57V43.49H26.43a11.89,11.89,0,0,1-2,3.71,13.63,13.63,0,0,1-7,4.5,15.93,15.93,0,0,1-4.25.58,16.81,16.81,0,0,1-5.51-.79A10.77,10.77,0,0,1,4,49.41,10.06,10.06,0,0,1,1.7,46.49,13.4,13.4,0,0,1,.51,43.21,19.15,19.15,0,0,1,.08,40Q0,38.41,0,37.3V14.41H2.74v23.4A34.13,34.13,0,0,0,3,41.29a10.46,10.46,0,0,0,1.26,4,9.21,9.21,0,0,0,3.13,3.28,10.74,10.74,0,0,0,5.9,1.37,13.1,13.1,0,0,0,5.58-1.15,12.06,12.06,0,0,0,4.21-3.2,14.11,14.11,0,0,0,2.63-4.9,20.56,20.56,0,0,0,.89-6.28v-20h2.74v37Z" transform="translate(0.03)"/><path class="a" d="M39,0V51.41H36.22V0H39Z" transform="translate(0.03)"/><path class="a" d="M59.47,16.78H51.41V42.63a10,10,0,0,0,.5,3.53,4,4,0,0,0,1.55,2A5.48,5.48,0,0,0,56,49a25.56,25.56,0,0,0,3.42.07v2.35a25.64,25.64,0,0,1-4.07,0,8.15,8.15,0,0,1-3.49-1.08,6.33,6.33,0,0,1-2.41-2.7,10.2,10.2,0,0,1-.76-5V16.78H41.83V14.41h6.84V2.88h2.74V14.41h8.06v2.38h0Z" transform="translate(0.03)"/><path class="a" d="M63.36,7.41V0H66.1V7.41H63.36Zm0,44v-37H66.1v37H63.36Z" transform="translate(0.03)"/><path class="a" d="M73.08,14.41h2.74V22H76a9.89,9.89,0,0,1,1.51-3.28A11.67,11.67,0,0,1,80.11,16a12.49,12.49,0,0,1,7.45-2.45,13.92,13.92,0,0,1,4.61.68A10.93,10.93,0,0,1,95.48,16a8.93,8.93,0,0,1,2.16,2.52,9.65,9.65,0,0,1,1.07,2.87h0.14a13.46,13.46,0,0,1,4.43-5.87,12.31,12.31,0,0,1,7.31-2,13.77,13.77,0,0,1,4.64.76,9.76,9.76,0,0,1,3.67,2.3,10.57,10.57,0,0,1,2.41,3.92,16.44,16.44,0,0,1,.86,5.62V51.41h-2.74V26.07a11.85,11.85,0,0,0-1.08-5.54,8.68,8.68,0,0,0-2.56-3.06,7.28,7.28,0,0,0-3-1.3,14.63,14.63,0,0,0-2.27-.25,12.2,12.2,0,0,0-4.64.86,9.85,9.85,0,0,0-3.6,2.63,12.16,12.16,0,0,0-2.41,4.28A18.3,18.3,0,0,0,99,29.56V51.41H96.26V26.07a12.25,12.25,0,0,0-1-5.51,8.31,8.31,0,0,0-2.45-3.06,7.37,7.37,0,0,0-2.88-1.3,13,13,0,0,0-2.34-.29,11.55,11.55,0,0,0-7.85,3.24,12.38,12.38,0,0,0-2.84,4.26,15.84,15.84,0,0,0-1.08,6.12V51.41H73.08v-37Z" transform="translate(0.03)"/><path class="a" d="M153.07,44.07H153a11.37,11.37,0,0,1-1.87,3.13,13.24,13.24,0,0,1-3,2.63,14.8,14.8,0,0,1-4,1.8,17.51,17.51,0,0,1-4.9.65q-5.9,0-9.14-2.56t-3.24-7.88a9.25,9.25,0,0,1,4.57-8.53,14,14,0,0,1,4.39-1.69,43.13,43.13,0,0,1,4.64-.72l4.25-.36a25,25,0,0,0,4.64-.68,5.93,5.93,0,0,0,2.56-1.3,3.69,3.69,0,0,0,1.1-2.15,20.17,20.17,0,0,0,.22-3.24,6.86,6.86,0,0,0-.62-2.76,6.31,6.31,0,0,0-1.8-2.3,8.92,8.92,0,0,0-3.17-1.58,16.93,16.93,0,0,0-4.75-.58,12.47,12.47,0,0,0-8,2.45q-3.06,2.45-3.35,7.42h-2.74q0.29-6.12,3.92-9.18T143,13.54q6.7,0,9.76,2.63A8.63,8.63,0,0,1,155.79,23v23.1a5.29,5.29,0,0,0,.25,1.44,2.16,2.16,0,0,0,.72,1,2.28,2.28,0,0,0,1.44.4,13.18,13.18,0,0,0,2-.22v2.3a8.61,8.61,0,0,1-2.23.29,6.58,6.58,0,0,1-2.63-.43,3.46,3.46,0,0,1-1.37-1.1,4.25,4.25,0,0,1-.68-1.69,11.67,11.67,0,0,1-.18-2.12v-2h0Zm0-13.68A5.19,5.19,0,0,1,150,32a38,38,0,0,1-4.57.65l-4.61.43q-2,.22-4,0.61a11.76,11.76,0,0,0-3.64,1.33,7.44,7.44,0,0,0-2.63,2.56,7.87,7.87,0,0,0-1,4.21q0,4.1,2.59,6.08a11.48,11.48,0,0,0,7.13,2,14,14,0,0,0,7.42-1.69,13.12,13.12,0,0,0,4.18-3.89,12,12,0,0,0,1.84-4.25,18.19,18.19,0,0,0,.4-2.77V30.39Z" transform="translate(0.03)"/><path class="b" d="M193.25,14.41V49.47a25,25,0,0,1-.72,6,13.37,13.37,0,0,1-2.48,5.15,12.15,12.15,0,0,1-4.85,3.56,19.88,19.88,0,0,1-7.83,1.33,24,24,0,0,1-5.53-.61A13.34,13.34,0,0,1,167.32,63a9.89,9.89,0,0,1-3.13-3.55A12.53,12.53,0,0,1,162.86,54h2.74a9.91,9.91,0,0,0,1.22,4.18A8.78,8.78,0,0,0,169.45,61a11.11,11.11,0,0,0,3.64,1.62,17.79,17.79,0,0,0,4.32.5A15.53,15.53,0,0,0,183.78,62a11,11,0,0,0,4.07-3A10.79,10.79,0,0,0,190,54.83a18.56,18.56,0,0,0,.61-4.72v-8.5h-0.21a14.72,14.72,0,0,1-5.28,6.26A14.56,14.56,0,0,1,177,50a16.47,16.47,0,0,1-7.08-1.4,13.66,13.66,0,0,1-5-3.89,16.74,16.74,0,0,1-2.95-5.8,25.53,25.53,0,0,1-1-7.2,23.09,23.09,0,0,1,1-7A17.39,17.39,0,0,1,165,19a14.79,14.79,0,0,1,5-4,16.23,16.23,0,0,1,15,.76,12.4,12.4,0,0,1,5.29,6.34h0.14V14.41h2.82Zm-16.2,1.51a12,12,0,0,0-5.87,1.37,12.38,12.38,0,0,0-4.1,3.6A16.33,16.33,0,0,0,164.63,26a20.65,20.65,0,0,0-.83,5.8,22.44,22.44,0,0,0,.83,6.16A14.59,14.59,0,0,0,167.15,43a12.29,12.29,0,0,0,4.17,3.4A12.48,12.48,0,0,0,177,47.67,12.74,12.74,0,0,0,183,46.41a12.23,12.23,0,0,0,4.21-3.53,15.5,15.5,0,0,0,2.52-5.08,22.13,22.13,0,0,0,0-12,15.07,15.07,0,0,0-2.52-5.08A12.42,12.42,0,0,0,183,17.21a12.75,12.75,0,0,0-5.92-1.3h0Z" transform="translate(0.03)"/><path class="b" d="M200.59,33.27V33.7a21.85,21.85,0,0,0,.87,6.19A15.81,15.81,0,0,0,204,45.07a12.16,12.16,0,0,0,4.26,3.53,13,13,0,0,0,6,1.3q5.56,0,8.81-2.92a15.26,15.26,0,0,0,4.48-8.1h2.74Q229,45.41,225,48.82t-10.76,3.46a16.34,16.34,0,0,1-7.16-1.48,14.57,14.57,0,0,1-5.11-4,17.1,17.1,0,0,1-3.06-6,27,27,0,0,1-1-7.52,26.36,26.36,0,0,1,1-7.45A18.71,18.71,0,0,1,202,19.57a15.52,15.52,0,0,1,5.22-4.32,15.86,15.86,0,0,1,7.38-1.62,15.66,15.66,0,0,1,6.88,1.44,14.42,14.42,0,0,1,5,3.92,17.47,17.47,0,0,1,3.06,5.76,23,23,0,0,1,1,7v1.59h-30Zm27.22-2.38a22.14,22.14,0,0,0-1-5.72,14.18,14.18,0,0,0-2.58-4.76,12.77,12.77,0,0,0-4.12-3.28,12.07,12.07,0,0,0-5.52-1.22,13,13,0,0,0-5.85,1.26,13.19,13.19,0,0,0-4.26,3.31,14.73,14.73,0,0,0-2.67,4.79,22.39,22.39,0,0,0-1.16,5.62h27.16Z" transform="translate(0.03)"/><path class="b" d="M236.44,39.1a11.36,11.36,0,0,0,1.15,4.57A10.89,10.89,0,0,0,244,49.18a14.7,14.7,0,0,0,4.68.72,24.8,24.8,0,0,0,3.85-.32,13.36,13.36,0,0,0,3.85-1.17A7.92,7.92,0,0,0,259.27,46a6.4,6.4,0,0,0,1.15-3.92,5.79,5.79,0,0,0-1.87-4.67A13.11,13.11,0,0,0,253.83,35a47.8,47.8,0,0,0-6.12-1.4,31.7,31.7,0,0,1-6.12-1.62,12.44,12.44,0,0,1-4.72-3.06,8.13,8.13,0,0,1-1.87-5.8,8.06,8.06,0,0,1,1.22-4.57,9.1,9.1,0,0,1,3.13-2.92A14.21,14.21,0,0,1,243.63,14a24.53,24.53,0,0,1,4.75-.47,21.64,21.64,0,0,1,5.4.65,11.69,11.69,0,0,1,4.36,2.09A10,10,0,0,1,261,20a12.68,12.68,0,0,1,1,5.4h-2.74a10.28,10.28,0,0,0-.83-4.32,7.53,7.53,0,0,0-2.3-2.92,10,10,0,0,0-3.43-1.73,16.65,16.65,0,0,0-4.32-.54,20.41,20.41,0,0,0-3.78.36,11,11,0,0,0-3.42,1.22,7.69,7.69,0,0,0-2.48,2.23,5.57,5.57,0,0,0-1,3.31,5.64,5.64,0,0,0,1.08,3.6,7.71,7.71,0,0,0,2.84,2.2,19.55,19.55,0,0,0,4,1.33l4.43,1q2.74,0.5,5.15,1.19a14.54,14.54,0,0,1,4.18,1.87,8.49,8.49,0,0,1,2.77,3.06,10,10,0,0,1,1,4.75,8.44,8.44,0,0,1-1.37,5,10.56,10.56,0,0,1-3.46,3.13,14.68,14.68,0,0,1-4.64,1.66,27.8,27.8,0,0,1-5,.47,20,20,0,0,1-5.87-.83,13.28,13.28,0,0,1-4.72-2.52A12,12,0,0,1,235,44.79a14,14,0,0,1-1.22-5.69h2.69Z" transform="translate(0.03)"/></svg>